 <svg xmlns="http://www.w3.org/2000/svg" width="179.308" height="42">
        <path d="M138.844 41.405V0h40.465z" fill="#00ADFF" />
        <g fill="#000">
            <path
                d="M6.588 16.986L.002.026h4.6l4.337 12.475L13.276.026h4.433l-6.662 16.957zM23.697 3.42v3.367h8.091v3.391h-8.092v3.416h9.231v3.392H19.388V.026h13.275v3.391zM47.563 16.986l-7.8-10.441v10.441h-4.041V.026h3.8l7.825 10.465V.026h4.022v16.96zM62.611 3.492v13.494H58.3V3.492h-5.064V.004H67.72v3.488zM84.83 9.865c0 4.481-2.98 7.315-7.728 7.315-4.773 0-7.825-2.834-7.825-7.315V.026h4.311v9.835a3.417 3.417 0 003.537 3.707c2.034 0 3.416-1.405 3.416-3.707V.026h4.288zM95.64 12.214h-3.392v4.772h-4.312V.026h7.582c4.482 0 7.05 2.131 7.05 5.911a5.653 5.653 0 01-3.077 5.45l3.561 5.6h-4.896zm-.122-3.392c1.866 0 2.956-.945 2.956-2.737 0-1.769-1.091-2.665-2.956-2.665h-3.27v5.4zM109.791 3.42v3.367h8.092v3.391h-8.092v3.416h9.23v3.392h-13.542V.026h13.273v3.391z"
            />
            <g>
                <path
                    d="M124.146.697v3.907h-.776V.697h-1.453v-.7h3.689v.7zM130.422 4.604l-.006-3.44-1.454 2.96h-.506l-1.454-2.96v3.44h-.73v-4.6h.921l1.519 3.059 1.512-3.059h.914v4.6z"
                />
            </g>
            <g>
                <path
                    d="M45.629 24.209c4.378 0 6.909 2.176 6.909 5.947 0 3.923-2.531 6.176-6.909 6.176h-4.631v5.592h-2.025V24.209zm-4.631 10.173h4.552c3.189 0 5.037-1.417 5.037-4.175 0-2.683-1.848-4.049-5.037-4.049h-4.555zM65.696 40.001v1.922h-9.794V24.209h2.025v15.792zM70.732 37.444l-1.974 4.479h-2.151l7.946-17.714h2.1l7.921 17.714h-2.2L80.4 37.444zm4.809-10.933l-3.948 8.985h7.946zM100.013 41.923L89.384 27.701v14.222h-2.025V24.209h2.1l10.63 14.247V24.209h2v17.714zM118.358 25.778l-.861 1.9a9.158 9.158 0 00-4.884-1.493c-2.277 0-3.77.861-3.77 2.353 0 4.556 9.971 2.176 9.946 8.605 0 2.961-2.607 4.859-6.4 4.859a10.113 10.113 0 01-6.782-2.708l.912-1.823a8.807 8.807 0 005.9 2.506c2.557 0 4.151-1.037 4.151-2.733.025-4.657-9.946-2.176-9.946-8.529 0-2.784 2.455-4.581 6.124-4.581a10.479 10.479 0 015.61 1.644z"
                />
            </g>
        </g>
    </svg>
