<?xml version="1.0" encoding="UTF-8"?>
<svg id="SVGDoc" width="44" height="45" xmlns="http://www.w3.org/2000/svg" version="1.1" xmlns:xlink="http://www.w3.org/1999/xlink" xmlns:avocode="https://avocode.com/" viewBox="0 0 44 45"><defs></defs><desc>Generated with Avocode.</desc><g><g><title>Group 2494</title><g><title>XMLID_1840_</title><g><title>XMLID_1083_</title><g><title>XMLID_1168_</title><path d="M39.14797,17.39028c0,-1.03855 0.84191,-1.88046 1.88046,-1.88046c1.03855,0 1.88046,0.84191 1.88046,1.88046c0,1.03855 -0.84191,1.88046 -1.88046,1.88046c-1.03855,0 -1.88046,-0.84191 -1.88046,-1.88046z" fill="#ffcd69" fill-opacity="1"></path></g><g><title>XMLID_1167_</title><path d="M25.05373,12.63519c0,-1.03855 0.84191,-1.88046 1.88046,-1.88046c1.03855,0 1.88046,0.84191 1.88046,1.88046c0,1.03855 -0.84191,1.88046 -1.88046,1.88046c-1.03855,0 -1.88046,-0.84191 -1.88046,-1.88046z" fill="#d5ea79" fill-opacity="1"></path></g><g><title>XMLID_1166_</title><path d="M9.33529,3.566c0,-0.96235 0.78014,-1.74249 1.74249,-1.74249c0.96235,0 1.74249,0.78014 1.74249,1.74249c0,0.96235 -0.78014,1.74249 -1.74249,1.74249c-0.96235,0 -1.74249,-0.78014 -1.74249,-1.74249z" fill="#ff7d97" fill-opacity="1"></path></g><g><title>XMLID_973_</title><path d="M30.93436,33.26942v0l-28.40617,10.4128c-0.99374,0.3643 -1.95893,-0.60098 -1.59472,-1.59471l10.4128,-28.40617c0.3125,-0.85245 1.40376,-1.09306 2.04577,-0.45105l17.99345,17.99347c0.64192,0.64191 0.40131,1.73317 -0.45114,2.04567z" fill="#98eaf9" fill-opacity="1"></path></g><g><title>XMLID_410_</title><path d="M3.38603,35.45922v0l-0.03607,0.03607v0l-2.41648,6.59222c-0.3643,0.99371 0.60098,1.95889 1.59472,1.5947l6.64504,-2.43588v0z" fill="#ff7d97" fill-opacity="1"></path></g><g><title>XMLID_49_</title><path d="M5.05468,31.35731v0l8.2036,8.20367v0l7.56296,-2.81531v0l-12.95125,-12.95123v0z" fill="#ffcd69" fill-opacity="1"></path></g><g><title>Group 2496</title><g><title>XMLID_48_</title><path d="M9.21888,41.2296v0l-5.83285,-5.83276v0l1.66865,-4.03949v0l8.2036,8.2037v0z" fill="#ffffff" fill-opacity="1"></path></g><g><title>XMLID_1116_</title><path d="M20.82124,36.74569v0l-12.95125,-12.95125v0l1.48112,-4.22693v0l15.69707,15.69707v0z" fill="#ffffff" fill-opacity="1"></path></g></g></g><g><title>XMLID_1021_</title><g><title>XMLID_1068_</title><path d="M30.88564,32.18609c-0.0171,0.07753 -0.07171,0.21711 -0.2454,0.28079l-5.25478,1.92619l-4.86159,-4.86168c-0.33378,-0.33386 -0.87501,-0.33378 -1.2088,-0.00008c-0.33378,0.33379 -0.33387,0.87502 -0.00008,1.2088l4.3013,4.30138l-2.40776,0.88262l-12.51704,-12.51704l0.88262,-2.40776l4.30139,4.3013c0.16685,0.16693 0.38566,0.25035 0.6044,0.25035c0.21873,0 0.43755,-0.08351 0.6044,-0.25035c0.33378,-0.33378 0.33378,-0.87501 -0.00009,-1.2088l-4.86159,-4.86158l1.92619,-5.25479c0.06368,-0.17368 0.20326,-0.2283 0.28087,-0.24548c0.02359,-0.00521 0.05393,-0.00965 0.08838,-0.00965c0.07855,0 0.17864,0.02325 0.26959,0.11428l17.99345,17.99345c0.13078,0.13086 0.12163,0.28053 0.10454,0.35806zM2.23399,42.87959c-0.20258,0.07428 -0.3425,-0.02453 -0.40806,-0.08992c-0.06547,-0.06547 -0.1642,-0.20548 -0.08992,-0.40797l1.99192,-5.4341l3.94008,3.94008zM9.43727,40.23917l-5.06075,-5.06075l0.88262,-2.40775l6.58589,6.58588zM13.6142,38.70805l-7.70656,-7.70656l2.13535,-5.82524l11.39645,11.39645zM42.07532,25.24865c0.22147,-0.41687 0.06308,-0.93434 -0.35378,-1.15588c-4.78945,-2.54512 -10.63196,-1.93474 -14.7823,1.47581l-1.38103,-1.38102l2.25544,-2.25545c0.33378,-0.33378 0.33378,-0.87501 0,-1.20888c-0.33387,-0.33378 -0.87493,-0.33378 -1.20888,0l-2.25544,2.25544l-5.503,-5.50299c1.2517,-1.67865 2.03919,-3.6504 2.2875,-5.74994c0.28609,-2.42032 -0.16924,-4.84134 -1.31701,-7.00105c-0.22147,-0.41686 -0.73911,-0.57516 -1.15588,-0.3537c-0.41686,0.22155 -0.57517,0.73902 -0.3537,1.15589c1.84097,3.46432 1.55284,7.57792 -0.6844,10.7253l-3.62647,-3.62647c-0.50884,-0.50883 -1.23213,-0.71996 -1.93491,-0.56517c-0.70278,0.15497 -1.27017,0.65081 -1.51787,1.3265l-10.41263,28.40625c-0.28438,0.77586 -0.09813,1.62088 0.48627,2.20518c0.40353,0.40353 0.93117,0.61723 1.47471,0.61723c0.24361,0 0.49037,-0.043 0.73047,-0.13096l28.40608,-10.41271c0.67568,-0.24762 1.17153,-0.81509 1.32658,-1.51779c0.15488,-0.70277 -0.05633,-1.42607 -0.56516,-1.93491l-3.83443,-3.83451c3.6116,-2.88173 8.63593,-3.37603 12.76397,-1.18238c0.41678,0.22155 0.93425,0.06308 1.15589,-0.35378z" fill="#000000" fill-opacity="1"></path></g><g><title>XMLID_1441_</title><path d="M25.77914,7.67334c0.47211,0 0.8548,-0.38267 0.8548,-0.85476c0,-0.71586 0.5824,-1.2982 1.29825,-1.2982c1.65842,0 3.00772,-1.34923 3.00772,-3.00771c0,-0.47208 -0.38275,-0.85476 -0.85474,-0.85476c-0.47202,0 -0.85474,0.38267 -0.85474,0.85476c0,0.71586 -0.58246,1.2982 -1.29825,1.2982c-1.65848,0 -3.00778,1.34923 -3.00778,3.00771c0,0.47208 0.38275,0.85476 0.85474,0.85476z" fill="#000000" fill-opacity="1"></path></g><g><title>XMLID_1462_</title><path d="M33.3627,15.74146c1.71286,0 3.10635,-1.39351 3.10635,-3.10627c0,-0.77013 0.62653,-1.39676 1.39673,-1.39676c0.47202,0 0.8548,-0.38267 0.8548,-0.85475c0,-0.47208 -0.38278,-0.85475 -0.8548,-0.85475c-1.71274,0 -3.10623,1.39351 -3.10623,3.10626c0,0.77013 -0.62662,1.39676 -1.39685,1.39676c-0.47198,0 -0.85474,0.38268 -0.85474,0.85475c0,0.47208 0.38275,0.85476 0.85474,0.85476z" fill="#000000" fill-opacity="1"></path></g><g><title>XMLID_1489_</title><path d="M41.02838,16.36459c0.56561,0 1.0257,0.4601 1.0257,1.02571c0,0.56558 -0.46008,1.0257 -1.0257,1.0257c-0.56561,0 -1.0257,-0.46011 -1.0257,-1.0257c0,-0.56561 0.46008,-1.02571 1.0257,-1.02571zM38.29321,17.3903c0,1.50821 1.22699,2.73521 2.73517,2.73521c1.50824,0 2.73523,-1.22701 2.73523,-2.73521c0,-1.50822 -1.22699,-2.73523 -2.73523,-2.73523c-1.50818,0 -2.73517,1.22701 -2.73517,2.73523z" fill="#000000" fill-opacity="1"></path></g><g><title>XMLID_1502_</title><path d="M26.9342,11.60948c0.56558,0 1.0257,0.46011 1.0257,1.02571c0,0.56559 -0.46011,1.0257 -1.0257,1.0257c-0.56561,0 -1.0257,-0.46011 -1.0257,-1.0257c0,-0.5656 0.46008,-1.02571 1.0257,-1.02571zM26.9342,15.37041c1.50821,0 2.7352,-1.22701 2.7352,-2.73521c0,-1.50822 -1.22699,-2.73521 -2.7352,-2.73521c-1.50824,0 -2.73523,1.22699 -2.73523,2.73521c0,1.50821 1.22711,2.73521 2.73523,2.73521z" fill="#000000" fill-opacity="1"></path></g><g><title>XMLID_1619_</title><path d="M10.94104,2.56156c0.56559,0 1.0257,0.46011 1.0257,1.02571c0,0.56559 -0.46011,1.02571 -1.0257,1.02571c-0.5656,0 -1.02571,-0.46011 -1.02571,-1.02571c0,-0.56559 0.46011,-1.02571 1.02571,-1.02571zM10.94104,6.32248c1.50821,0 2.73521,-1.227 2.73521,-2.73522c0,-1.50822 -1.22701,-2.73522 -2.73521,-2.73522c-1.50822,0 -2.73521,1.227 -2.73521,2.73522c0,1.50822 1.227,2.73522 2.73521,2.73522z" fill="#000000" fill-opacity="1"></path></g><g><title>XMLID_1620_</title><path d="M38.67816,30.85889c-0.33371,-0.33374 -0.87479,-0.33374 -1.20889,-0.00006c-0.3338,0.33377 -0.3338,0.875 0,1.2088l0.80585,0.80585c0.16693,0.16693 0.38568,0.25037 0.6044,0.25037c0.21872,0 0.43747,-0.08353 0.6044,-0.25037c0.33377,-0.3338 0.33377,-0.875 0,-1.20877z" fill="#000000" fill-opacity="1"></path></g><g><title>XMLID_1659_</title><path d="M42.70737,34.88828c-0.33386,-0.3338 -0.87488,-0.3338 -1.20886,0c-0.33374,0.33377 -0.33374,0.87503 0,1.20889l0.80585,0.80585c0.16693,0.16693 0.38568,0.25037 0.60443,0.25037c0.21875,0 0.43744,-0.08344 0.60437,-0.25037c0.3338,-0.33377 0.3338,-0.875 0,-1.20886z" fill="#000000" fill-opacity="1"></path></g><g><title>XMLID_1690_</title><path d="M42.30435,30.85892l-0.80585,0.80585c-0.33374,0.3338 -0.33374,0.875 0,1.2088c0.16693,0.16693 0.38568,0.25034 0.60443,0.25034c0.21869,0 0.4375,-0.0835 0.60437,-0.25034l0.80585,-0.80588c0.3338,-0.33377 0.3338,-0.875 0,-1.20877c-0.33374,-0.33386 -0.875,-0.3338 -1.2088,0z" fill="#000000" fill-opacity="1"></path></g><g><title>XMLID_1712_</title><path d="M38.27512,34.88828l-0.80585,0.80588c-0.3338,0.33377 -0.3338,0.875 0,1.20886c0.16693,0.16693 0.38565,0.25037 0.6044,0.25037c0.21881,0 0.43744,-0.08344 0.60437,-0.25037l0.80588,-0.80585c0.33377,-0.3338 0.33377,-0.87503 0,-1.20889c-0.33386,-0.3338 -0.87494,-0.3338 -1.2088,0z" fill="#000000" fill-opacity="1"></path></g><g><title>XMLID_1715_</title><path d="M42.103,3.36742c0.21875,0 0.43756,-0.08342 0.60443,-0.25036l0.80585,-0.80586c0.3338,-0.33378 0.3338,-0.87501 0,-1.2088c-0.33386,-0.33378 -0.87512,-0.33378 -1.20886,0l-0.80591,0.80586c-0.33374,0.33378 -0.33374,0.87501 0,1.20879c0.16705,0.16693 0.38568,0.25036 0.60449,0.25036z" fill="#000000" fill-opacity="1"></path></g><g><title>XMLID_1747_</title><path d="M38.07364,7.39674c0.21881,0 0.43747,-0.08342 0.6044,-0.25036l0.80588,-0.80586c0.33377,-0.33379 0.33377,-0.87502 0,-1.20888c-0.33386,-0.33378 -0.87494,-0.33378 -1.20889,0l-0.80588,0.80586c-0.33377,0.33378 -0.33377,0.87502 0,1.20888c0.16702,0.16693 0.38577,0.25036 0.60449,0.25036z" fill="#000000" fill-opacity="1"></path></g><g><title>XMLID_1750_</title><path d="M42.70737,5.13173c-0.33386,-0.33378 -0.87488,-0.33378 -1.20886,0c-0.33374,0.33378 -0.33374,0.87501 0,1.20888l0.80585,0.80586c0.16693,0.16694 0.38568,0.25036 0.60443,0.25036c0.21875,0 0.43744,-0.08342 0.60437,-0.25036c0.3338,-0.33378 0.3338,-0.87501 0,-1.20888z" fill="#000000" fill-opacity="1"></path></g><g><title>XMLID_1751_</title><path d="M38.27512,3.11707c0.16693,0.16693 0.38565,0.25036 0.6044,0.25036c0.21872,0 0.43747,-0.08342 0.6044,-0.25036c0.33377,-0.33378 0.33377,-0.87501 0,-1.2088l-0.80588,-0.80586c-0.33368,-0.33378 -0.87476,-0.33378 -1.20889,0c-0.33377,0.33378 -0.33377,0.87501 0,1.20879z" fill="#000000" fill-opacity="1"></path></g><g><title>XMLID_1755_</title><path d="M17.19946,26.56137c-0.22479,0 -0.44531,0.09146 -0.60431,0.25043c-0.15898,0.159 -0.25044,0.37955 -0.25044,0.60434c0,0.22479 0.09146,0.44531 0.25044,0.60428c0.159,0.159 0.37952,0.25046 0.60431,0.25046c0.22481,0 0.44533,-0.09146 0.60432,-0.25046c0.15897,-0.15897 0.25044,-0.37949 0.25044,-0.60428c0,-0.22479 -0.09148,-0.44534 -0.25044,-0.60434c-0.159,-0.159 -0.37952,-0.25043 -0.60432,-0.25043z" fill="#000000" fill-opacity="1"></path></g><g><title>XMLID_1756_</title><path d="M29.6701,17.6579v0l-0.61969,0.61969c-0.33377,0.33379 -0.33377,0.87502 0,1.20888c0.16693,0.16693 0.38568,0.25037 0.6044,0.25037c0.21875,0 0.43747,-0.08344 0.6044,-0.25037l0.61969,-0.61967c0.33377,-0.3338 0.33377,-0.87503 0,-1.20889c-0.33386,-0.33379 -0.87491,-0.33379 -1.20877,0z" fill="#000000" fill-opacity="1"></path></g></g></g></g></g></svg>