<svg xmlns="http://www.w3.org/2000/svg" width="56" height="56" viewBox="0 0 56 56"><g><g><g><g><path fill="#fff" d="M6.122 7.51a5.514 5.514 0 0 1 5.508-5.508A5.514 5.514 0 0 1 17.14 7.51c0 3.038-2.47 5.517-5.509 5.517-3.038 0-5.508-2.479-5.508-5.517z"/></g><g><path fill="#fff" d="M19.42 15.42l-.052.026a10.737 10.737 0 0 0-5.388 9.295v1.652H1.242a.426.426 0 0 1-.43-.43V21.72c0-4.45 3.623-8.073 8.073-8.073.138 0 .336.06.413.172l2.341 3.124 2.333-3.124a.413.413 0 0 1 .344-.172 8.15 8.15 0 0 1 5.104 1.773z"/></g><g><path fill="#fff" d="M39.301 7.51a5.514 5.514 0 0 1 5.509-5.508c3.038 0 5.517 2.47 5.517 5.508a5.528 5.528 0 0 1-5.517 5.517c-3.038 0-5.509-2.479-5.509-5.517z"/></g><g><path fill="#fff" d="M55.637 21.72v4.243c0 .241-.19.43-.43.43H42.202v-1.652c0-3.796-1.945-7.221-5.199-9.184-.034-.017-.06-.034-.094-.051a8.109 8.109 0 0 1 5.155-1.86c.138 0 .336.061.413.173l2.341 3.133 2.341-3.133a.413.413 0 0 1 .345-.172c4.501 0 8.133 3.623 8.133 8.073z"/></g></g><g><path fill="#fff" d="M21.39 7.209c0-3.692 3.004-6.705 6.697-6.705 3.692 0 6.704 3.012 6.704 6.705 0 3.692-3.012 6.696-6.704 6.696a6.704 6.704 0 0 1-6.696-6.696z"/></g><g><path fill="#fff" d="M52.418 47.411V38.47l-19.391-.043c-.218-2.052-1.885-3.583-3.813-3.787v-4.235h11.697c.24 0 .43-.19.43-.43V24.74c0-3.494-1.79-6.645-4.785-8.443a9.9 9.9 0 0 0-5.147-1.412.412.412 0 0 0-.344.172l-2.97 3.968-2.96-3.968a.412.412 0 0 0-.345-.172h-.094a9.774 9.774 0 0 0-4.898 1.308 9.863 9.863 0 0 0-4.957 8.547v5.233c0 .24.19.43.43.43h13.083v4.243c-1.971.198-3.564 1.756-3.813 3.762l-20.278-.052v8.942H.812v7.85h7.832v-7.85h-3.52v-8.081l19.4.051a4.282 4.282 0 0 0 3.83 3.882v4.26h-3.495v7.85h7.84v-7.85h-3.485v-4.269a4.26 4.26 0 0 0 3.813-3.856l18.53.044v8.081H48.03v7.85h7.84v-7.85z"/></g></g></g></svg>