<svg xmlns="http://www.w3.org/2000/svg" width="69" height="56" viewBox="0 0 69 56"><g><g><g><path fill="#fff" d="M41.009.504c-7.277 0-14.122 2.882-19.309 8.07a2.392 2.392 0 0 0 0 3.386l4.035 4.034c.504.505 1.08.72 1.729.72.648 0 1.225-.215 1.729-.72a2.392 2.392 0 0 0 0-3.386l-2.233-2.234a22.062 22.062 0 0 1 11.743-4.827v3.17a2.399 2.399 0 0 0 2.378 2.378 2.399 2.399 0 0 0 2.378-2.378v-3.17a22.837 22.837 0 0 1 11.743 4.9l-2.305 2.161a2.392 2.392 0 0 0 0 3.386c.504.505 1.08.72 1.73.72.648 0 1.224-.215 1.728-.72l2.234-2.233c2.666 3.242 4.395 7.277 4.899 11.744h-3.17a2.399 2.399 0 0 0-2.378 2.377 2.399 2.399 0 0 0 2.378 2.378h3.17c-.504 4.395-2.233 8.43-4.9 11.672l-2.233-2.234a2.392 2.392 0 0 0-3.386 0 2.392 2.392 0 0 0 0 3.386l2.233 2.234c-3.314 2.738-7.348 4.467-11.743 4.971v-3.17a2.399 2.399 0 0 0-2.378-2.377 2.399 2.399 0 0 0-2.378 2.377v3.17c-4.323-.432-8.357-2.161-11.743-4.827l2.233-2.233a2.392 2.392 0 0 0 0-3.387 2.392 2.392 0 0 0-3.386 0l-4.035 4.035c-.216.216-.432.504-.504.793-.36.864-.144 1.873.504 2.593 5.115 5.116 11.96 7.998 19.237 7.998 15.058 0 27.378-12.249 27.378-27.379S56.14.504 41.01.504z"/></g><g><path fill="#fff" d="M41.009 14.265a2.399 2.399 0 0 0-2.378 2.378v11.24a2.399 2.399 0 0 0 2.378 2.377h9.582a2.399 2.399 0 0 0 2.378-2.378 2.399 2.399 0 0 0-2.378-2.377H43.46v-8.862c0-1.297-1.081-2.378-2.45-2.378z"/></g><g><path fill="#fff" d="M18.314 25.505H2.319a2.399 2.399 0 0 0-2.378 2.377A2.399 2.399 0 0 0 2.32 30.26h15.995a2.399 2.399 0 0 0 2.377-2.378 2.399 2.399 0 0 0-2.377-2.377z"/></g><g><path fill="#fff" d="M18.314 16.282H7.794a2.399 2.399 0 0 0-2.377 2.378 2.399 2.399 0 0 0 2.378 2.378h10.519a2.399 2.399 0 0 0 2.377-2.378 2.399 2.399 0 0 0-2.377-2.378z"/></g><g><path fill="#fff" d="M18.314 34.655H7.794a2.399 2.399 0 0 0-2.377 2.377 2.399 2.399 0 0 0 2.378 2.378h10.519a2.399 2.399 0 0 0 2.377-2.378 2.399 2.399 0 0 0-2.377-2.377z"/></g></g></g></svg>