<svg xmlns="http://www.w3.org/2000/svg" width="63" height="59" viewBox="0 0 63 59"><g><g><g><path fill="#fff" d="M7.479 36.176h5.246v-1.05H7.479zm11.542 0h5.246v-1.05h-5.246zm-4.197 0h2.098v-1.05h-2.098zm-7.345 3.148H20.07v-1.05H7.48zm14.69 0h2.098v-1.05H22.17zm14.69-23.084h5.246v-1.05H36.86zm11.542 0h5.246v-1.05h-5.246zm-4.197 0h2.098v-1.05h-2.098zm-7.345-3.148H49.45v-1.05H36.86zm14.69 0h2.098v-1.05H51.55zm-34.627-6.82v9.968h9.968c0-5.506-4.462-9.969-9.968-9.969zm9.444 11.017H15.873V6.796c-5.795 0-10.493 4.698-10.493 10.493s4.698 10.493 10.493 10.493 10.493-4.698 10.493-10.493zm9.443 24.134h2.099v-9.444h-2.099zm-5.246 0h2.099v-6.296h-2.099zm15.74 0H48.4v-9.444h-2.099zm5.246 0h2.098v-15.74H51.55zM26.366 43.52h31.478v-1.05H26.366zm14.69-2.098h2.098v-4.198h-2.098zm19.037-38.8V46.57l-57.194-.023V2.558zm2.998 46.145V.5H.134v48.268h29.135l-9.199 7.718 1.349 1.608 9.144-7.673v6.74h2.099v-6.745l9.4 7.888 1.349-1.608-9.45-7.928z"/></g></g></g></svg>