<svg xmlns="http://www.w3.org/2000/svg" width="76" height="44" viewBox="0 0 76 44"><g><g><g><path fill="#fff" d="M76.084 34.565h-65.99V-.015h65.99zm-2.64-31.94h-60.71v29.3h60.71zM14.846 8.93a4.193 4.193 0 0 0 4.194-4.193h16.888a14.547 14.547 0 0 0-7.093 12.537 14.549 14.549 0 0 0 7.093 12.538H19.04a4.194 4.194 0 0 0-4.194-4.194zm30.149 12.013c0-1.036-.69-1.35-1.653-1.981l-3.283-2.093c-1.4-.901-1.72-2.295-1.72-3.578 0-2.385 1.33-3.96 3.489-4.386v-1.35c0-.36.274-.631.619-.631h1.308c.344 0 .62.27.62.63v1.35c2.042.405 3.466 1.823 3.466 4.253v.244c0 .338-.3.63-.667.63h-1.468c-.368 0-.666-.292-.666-.63v-.244c0-1.147-.666-2.002-1.929-2.002-1.26 0-1.927.765-1.927 2.002v.226c0 .9.482 1.215 1.63 1.935l2.984 1.89c1.744 1.103 2.043 2.048 2.043 4.141 0 2.385-1.377 3.847-3.467 4.252v1.395c0 .36-.274.63-.619.63h-1.308a.616.616 0 0 1-.619-.63v-1.372c-2.066-.405-3.49-1.846-3.49-4.276v-.738c0-.338.298-.63.665-.63h1.47c.367 0 .665.292.665.63v.738c0 1.148.78 2.003 1.93 2.003 1.26 0 1.927-.766 1.927-2.003v-.405zm12.348-3.669A14.549 14.549 0 0 0 50.25 4.737h16.89a4.195 4.195 0 0 0 4.193 4.194v16.688a4.195 4.195 0 0 0-4.194 4.194H50.25a14.547 14.547 0 0 0 7.093-12.538zm13.99 22.04H5.343V4.737h2.64v31.939h63.35zm-4.751 4.752H.592V9.488h2.64v31.94h63.35z"/></g></g></g></svg>