<svg xmlns="http://www.w3.org/2000/svg" width="48" height="55" viewBox="0 0 48 55"><g><g><g><path fill="#fff" d="M45.064 21.988a8.947 8.947 0 1 1-17.894-.002 8.947 8.947 0 0 1 17.894.002zm-20.601 0c0 6.435 5.219 11.654 11.654 11.654 6.436 0 11.655-5.22 11.655-11.654 0-6.436-5.22-11.655-11.655-11.655s-11.654 5.22-11.654 11.655zm6.204 11.25l-2.6 13.694 8.05-4.83 8.05 4.83-2.6-13.694a12.544 12.544 0 0 1-10.9 0zM8.424 23.492h12.69v-2.71H8.424zm0 5.3h12.69v-2.71H8.424zm0 10.598h12.69v-2.708H8.424zm0-5.3h12.69v-2.708H8.424zm0 10.6h12.69V41.98H8.424zm21.997-25.062l-2.358 2.36 2.358 2.358v3.337h3.338l2.359 2.36 2.36-2.36h3.335v-3.337l2.36-2.359-2.36-2.36v-3.336h-3.335l-2.36-2.359-2.36 2.36h-3.337zm-16.5-7.56l-2.766-.005 2.24 1.62-.86 2.628 2.234-1.63 2.233 1.63-.86-2.628 2.24-1.62-2.764.005-.85-2.631zM37.81.327H.536v54.218H37.81V44.102l-1.693-1.016-1.693 1.016v7.057H3.922V3.713h30.502V9.6a12.605 12.605 0 0 1 3.386 0V.327z"/></g></g></g></svg>